# File created by Blade
# Date/Time:  Mon Sep 22 17:38:34 2014
# Frame Rate: 120.000 fps
#------------------------------------------------------
:FULLY-SPECIFIED
:DEGREES
1264
root 1.248131 37.375555 6.375976 -12.434734 -28.922251 6.322418
RightUpLeg 12.178074 7.423027 0.416321
RightLeg 5.557956 -0.000000 -0.000000
RightFoot -13.674449 -7.839970 7.307912
RightToeBase 10.989160 -0.000000 -0.000000
LeftUpLeg -25.617428 -18.833051 15.200595
LeftLeg 94.083966 -0.000000 -0.000000
LeftFoot 18.654488 24.302350 -11.564548
LeftToeBase -0.597668 -0.000000 0.000000
Spine 17.800089 3.679905 -3.558671
RightShoulder 2.575237 -28.941439 -11.389811
RightArm 22.376018 -21.691832 58.728665
RightForeArm 3.825090 -0.000000 46.099610
RightHand -0.319413 -0.000000 -1.676878
RightHandThumb1 -24.326973 -0.000000 -32.862282
LeftShoulder -22.696305 29.360556 0.171778
LeftArm 50.871872 -45.455544 -62.693142
LeftForeArm 39.748178 -0.000000 57.315435
LeftHand -18.801787 -0.000000 -25.031346
LeftHandThumb1 -26.253704 0.000000 33.147579
Head 16.978952 27.099879 -5.939155
1265
root 1.255325 37.362029 6.359795 -12.295741 -28.224456 6.103747
RightUpLeg 12.327730 7.063075 0.546500
RightLeg 5.305802 -0.000000 -0.000000
RightFoot -13.664366 -8.129802 7.356826
RightToeBase 10.946534 -0.000000 -0.000000
LeftUpLeg -26.534847 -16.832901 14.911077
LeftLeg 93.914411 -0.000000 -0.000000
LeftFoot 18.730882 24.382583 -12.057279
LeftToeBase 1.087802 -0.000000 -0.000000
Spine 17.951250 3.211400 -3.447938
RightShoulder 2.517961 -28.929637 -11.327286
RightArm 22.219450 -21.620620 58.831972
RightForeArm 3.983921 -0.000000 46.052910
RightHand -0.237784 0.000000 -1.755873
RightHandThumb1 -24.326973 -0.000000 -32.862282
LeftShoulder -22.561862 29.333085 0.280897
LeftArm 50.997057 -45.392262 -62.736398
LeftForeArm 39.694455 -0.000000 57.334898
LeftHand -18.783810 0.000000 -24.998688
LeftHandThumb1 -26.253704 0.000000 33.147579
Head 16.796133 26.857505 -5.916976
1266
root 1.265452 37.349652 6.346513 -12.192784 -27.442637 5.896917
RightUpLeg 12.538412 6.703914 0.665884
RightLeg 5.002854 -0.000000 -0.000000
RightFoot -13.635915 -8.483486 7.448423
RightToeBase 10.878333 -0.000000 -0.000000
LeftUpLeg -27.467327 -14.706225 14.421256
LeftLeg 93.774775 -0.000000 -0.000000
LeftFoot 19.294305 24.301047 -11.952148
LeftToeBase 0.271616 -0.000000 -0.000000
Spine 18.163886 2.655228 -3.337539
RightShoulder 2.436673 -28.917019 -11.276011
RightArm 22.099742 -21.532583 58.927378
RightForeArm 4.117192 -0.000000 46.012757
RightHand -0.254524 -0.000000 -1.762099
RightHandThumb1 -24.326973 -0.000000 -32.862282
LeftShoulder -22.460165 29.285385 0.311740
LeftArm 51.143832 -45.326609 -62.686030
LeftForeArm 39.439526 -0.000000 57.263403
LeftHand -18.839438 -0.000000 -24.729294
LeftHandThumb1 -26.253704 0.000000 33.147579
Head 16.667629 26.858597 -5.725929
1267
root 1.278189 37.339524 6.337300 -12.109591 -26.600278 5.699055
RightUpLeg 12.775122 6.287215 0.758073
RightLeg 4.692548 -0.000000 -0.000000
RightFoot -13.621315 -8.803616 7.581022
RightToeBase 10.855262 -0.000000 -0.000000
LeftUpLeg -28.445527 -12.426277 13.745987
LeftLeg 93.709670 -0.000000 -0.000000
LeftFoot 19.676153 24.224447 -12.280723
LeftToeBase -0.263428 -0.000000 0.000000
Spine 18.396813 2.066068 -3.234814
RightShoulder 2.337203 -28.951673 -11.196060
RightArm 22.028804 -21.419533 58.979794
RightForeArm 4.285763 0.000000 45.951593
RightHand -0.233753 -0.000000 -1.753534
RightHandThumb1 -24.326973 -0.000000 -32.862282
LeftShoulder -22.349011 29.223336 0.344501
LeftArm 51.331146 -45.231856 -62.627976
LeftForeArm 39.345029 0.000000 57.194957
LeftHand -19.753376 0.000000 -24.493022
LeftHandThumb1 -26.253704 0.000000 33.147579
Head 16.496543 26.730956 -5.642867
1268
root 1.287073 37.326398 6.329291 -11.999855 -25.635217 5.479408
RightUpLeg 13.089574 5.875800 0.893330
RightLeg 4.219810 -0.000000 -0.000000
RightFoot -13.556027 -9.303301 7.703914
RightToeBase 10.789620 -0.000000 -0.000000
LeftUpLeg -29.525001 -10.043038 12.908976
LeftLeg 93.714980 -0.000000 -0.000000
LeftFoot 20.000657 24.227879 -12.438817
LeftToeBase 0.317769 -0.000000 -0.000000
Spine 18.571905 1.432436 -3.142058
RightShoulder 2.221976 -28.978104 -11.052100
RightArm 21.849870 -21.275001 59.082297
RightForeArm 4.366108 0.000000 45.888018
RightHand -0.240760 -0.000000 -1.724014
RightHandThumb1 -24.326973 -0.000000 -32.862282
LeftShoulder -22.157447 29.221127 0.480783
LeftArm 51.537766 -45.163340 -62.728851
LeftForeArm 39.274759 -0.000000 57.172314
LeftHand -18.867456 -0.000000 -24.594522
LeftHandThumb1 -26.253704 0.000000 33.147579
Head 16.323478 26.317467 -5.602172
1269
root 1.307068 37.314557 6.321625 -11.937019 -24.757438 5.324408
RightUpLeg 13.303064 5.343658 0.915877
RightLeg 3.937292 -0.000000 -0.000000
RightFoot -13.561299 -9.578575 7.778503
RightToeBase 10.780910 -0.000000 -0.000000
LeftUpLeg -30.608903 -7.402813 11.823843
LeftLeg 93.819760 -0.000000 -0.000000
LeftFoot 20.145805 24.277513 -12.950195
LeftToeBase 0.692109 -0.000000 -0.000000
Spine 18.785787 0.874567 -3.060520
RightShoulder 2.125846 -29.006964 -10.961019
RightArm 21.732015 -21.147540 59.150268
RightForeArm 4.472681 0.000000 45.794219
RightHand -0.224498 0.000000 -1.689548
RightHandThumb1 -24.326973 -0.000000 -32.862282
LeftShoulder -22.002716 29.201544 0.559045
LeftArm 51.833952 -45.076600 -62.853013
LeftForeArm 39.211836 -0.000000 57.123720
LeftHand -18.858175 -0.000000 -24.553872
LeftHandThumb1 -26.253704 0.000000 33.147579
Head 16.160923 25.979687 -5.559176
1270
root 1.330080 37.303091 6.316880 -11.857502 -23.827122 5.143871
RightUpLeg 13.503809 4.715121 0.935786
RightLeg 3.673218 -0.000000 -0.000000
RightFoot -13.548973 -9.799319 7.854189
RightToeBase 10.739354 -0.000000 -0.000000
LeftUpLeg -31.765762 -4.651428 10.552909
LeftLeg 94.012462 -0.000000 -0.000000
LeftFoot 20.482176 24.314547 -13.137195
LeftToeBase 0.646992 -0.000000 -0.000000
Spine 18.975875 0.287439 -2.918235
RightShoulder 2.049027 -29.118334 -10.908229
RightArm 21.641311 -20.965524 59.226972
RightForeArm 4.643093 0.000000 45.686322
RightHand -0.228891 -0.000000 -1.680949
RightHandThumb1 -24.326973 -0.000000 -32.862282
LeftShoulder -21.808275 29.160998 0.623572
LeftArm 52.101824 -44.967723 -62.943714
LeftForeArm 39.141600 -0.000000 57.086941
LeftHand -18.902773 -0.000000 -24.528854
LeftHandThumb1 -26.253704 0.000000 33.147579
Head 16.067598 25.644066 -5.497004
1271
root 1.354724 37.290815 6.308098 -11.749645 -22.878275 4.959166
RightUpLeg 13.682634 4.075316 0.958546
RightLeg 3.379979 -0.000000 -0.000000
RightFoot -13.525486 -10.039700 7.914177
RightToeBase 10.683102 -0.000000 -0.000000
LeftUpLeg -33.030780 -1.833269 9.080189
LeftLeg 94.311251 -0.000000 -0.000000
LeftFoot 20.587668 24.408305 -13.708309
LeftToeBase 1.021673 -0.000000 -0.000000
Spine 19.124746 -0.289912 -2.758490
RightShoulder 1.966148 -29.123852 -10.855536
RightArm 21.447061 -20.842863 59.358052
RightForeArm 4.807771 -0.000000 45.533355
RightHand -0.200389 -0.000000 -1.694357
RightHandThumb1 -24.326973 -0.000000 -32.862282
LeftShoulder -21.606040 29.129040 0.699584
LeftArm 52.410445 -44.826491 -63.042002
LeftForeArm 39.045948 -0.000000 57.019869
LeftHand -18.864375 -0.000000 -24.519752
LeftHandThumb1 -26.253704 0.000000 33.147579
Head 15.973714 25.233883 -5.476655
1272
root 1.383443 37.277830 6.297251 -11.628880 -21.905955 4.763101
RightUpLeg 13.876825 3.522001 1.009852
RightLeg 3.028469 -0.000000 -0.000000
RightFoot -13.463806 -10.342833 7.953346
RightToeBase 10.550104 -0.000000 -0.000000
LeftUpLeg -34.392129 1.047982 7.413699
LeftLeg 94.682309 -0.000000 -0.000000
LeftFoot 20.852128 24.375441 -14.301805
LeftToeBase 1.220153 -0.000000 -0.000000
Spine 19.261778 -0.904935 -2.587756
RightShoulder 1.898220 -29.175928 -10.817113
RightArm 21.330533 -20.717746 59.433869
RightForeArm 4.992055 -0.000000 45.347665
RightHand -0.178479 -0.000000 -1.705554
RightHandThumb1 -24.326973 -0.000000 -32.862282
LeftShoulder -21.468069 29.107981 0.744614
LeftArm 52.830648 -44.652663 -63.241624
LeftForeArm 39.007540 -0.000000 56.959620
LeftHand -18.755921 -0.000000 -24.473652
LeftHandThumb1 -26.253704 0.000000 33.147579
Head 15.868734 24.715170 -5.543682
